<svg width="70" height="70" viewBox="0 0 70 70" fill="none" xmlns="http://www.w3.org/2000/svg">
<path d="M47.2209 5.83325H22.7792C12.1625 5.83325 5.83337 12.1624 5.83337 22.7791V47.1916C5.83337 57.8374 12.1625 64.1666 22.7792 64.1666H47.1917C57.8084 64.1666 64.1375 57.8374 64.1375 47.2208V22.7791C64.1667 12.1624 57.8375 5.83325 47.2209 5.83325ZM49.5834 50.3124H20.4167C19.2209 50.3124 18.2292 49.3208 18.2292 48.1249C18.2292 46.9291 19.2209 45.9374 20.4167 45.9374H49.5834C50.7792 45.9374 51.7709 46.9291 51.7709 48.1249C51.7709 49.3208 50.7792 50.3124 49.5834 50.3124ZM49.5834 37.1874H20.4167C19.2209 37.1874 18.2292 36.1958 18.2292 34.9999C18.2292 33.8041 19.2209 32.8124 20.4167 32.8124H49.5834C50.7792 32.8124 51.7709 33.8041 51.7709 34.9999C51.7709 36.1958 50.7792 37.1874 49.5834 37.1874ZM49.5834 24.0624H20.4167C19.2209 24.0624 18.2292 23.0708 18.2292 21.8749C18.2292 20.6791 19.2209 19.6874 20.4167 19.6874H49.5834C50.7792 19.6874 51.7709 20.6791 51.7709 21.8749C51.7709 23.0708 50.7792 24.0624 49.5834 24.0624Z" fill="#292D32"/>
</svg>
